 <svg xmlns="http://www.w3.org/2000/svg" viewBox="0 0 100 100">
<defs>
  <style>
    .cls-1{fill:#565656;stroke:#999;stroke-linejoin:round;stroke-width:0.5px;}
  </style>
  </defs>
  <g id="_03_Content-path" data-name="03_Content-path">
    <path class="cls-1" d="M89,15V89H15v6H89a6,6,0,0,0,6-6V15Z"/>
  <path class="cls-1" d="M89,5a6,6,0,0,1,6,6H11V95a6,6,0,0,1-6-6V11a6,6,0,0,1,6-6Z"/>
  <path class="cls-1" d="M79.22,25.78l-46,46a6,6,0,0,0,8.48,0L79.22,34.27A6,6,0,0,0,79.22,25.78Z"/>
  <g id="LWPOLYLINE">
    <path class="cls-1" d="M20.53,50.53,34.67,64.67l-4.24,4.24L20.53,59A6,6,0,0,1,20.53,50.53Z"/>
  </g>
  </g>
</svg>